<svg width="123" height="123" viewBox="0 0 123 123" fill="none" xmlns="http://www.w3.org/2000/svg">
<path d="M7.9413 112.647C7.9413 112.701 7.9413 112.747 7.93361 112.786C7.93361 112.824 7.91824 112.855 7.90286 112.878C7.88749 112.901 7.87211 112.916 7.85674 112.932C7.84136 112.939 7.8183 112.947 7.80292 112.947H5.81955V114.792H7.6953C7.6953 114.792 7.73374 114.792 7.74911 114.808C7.76449 114.815 7.77986 114.831 7.79524 114.854C7.81061 114.877 7.8183 114.907 7.82599 114.946C7.83367 114.984 7.83367 115.03 7.83367 115.092C7.83367 115.146 7.83367 115.192 7.82599 115.23C7.82599 115.269 7.81061 115.3 7.79524 115.323C7.77986 115.346 7.76449 115.361 7.74911 115.376C7.73374 115.392 7.71067 115.392 7.6953 115.392H5.81955V117.644C5.81955 117.644 5.81955 117.683 5.80417 117.698C5.79649 117.713 5.77342 117.729 5.74267 117.736C5.71192 117.744 5.68117 117.752 5.63505 117.76C5.58892 117.76 5.53511 117.767 5.45824 117.767C5.38905 117.767 5.33524 117.767 5.28911 117.76C5.24299 117.76 5.20455 117.744 5.1738 117.736C5.14305 117.729 5.12767 117.713 5.1123 117.698C5.10461 117.683 5.09692 117.66 5.09692 117.644V112.632C5.09692 112.524 5.12767 112.447 5.18149 112.401C5.2353 112.355 5.2968 112.34 5.36599 112.34H7.80292C7.80292 112.34 7.84136 112.34 7.85674 112.355C7.87211 112.363 7.88749 112.386 7.90286 112.409C7.91824 112.432 7.92592 112.471 7.93361 112.509C7.93361 112.547 7.9413 112.594 7.9413 112.647Z" fill="#384E67"/>
<path d="M12.3387 115.721C12.3387 116.028 12.3002 116.313 12.2157 116.567C12.1388 116.828 12.0158 117.043 11.8543 117.235C11.6929 117.42 11.493 117.566 11.2547 117.674C11.0164 117.781 10.732 117.827 10.4168 117.827C10.1016 117.827 9.84022 117.781 9.60959 117.689C9.37897 117.597 9.18678 117.466 9.03303 117.289C8.87928 117.112 8.76397 116.897 8.68709 116.651C8.61022 116.397 8.57178 116.113 8.57178 115.798C8.57178 115.483 8.61022 115.206 8.68709 114.952C8.76397 114.691 8.88697 114.476 9.0484 114.283C9.20984 114.099 9.40972 113.953 9.64803 113.845C9.88634 113.745 10.1708 113.691 10.486 113.691C10.8012 113.691 11.0625 113.738 11.2932 113.83C11.5238 113.922 11.716 114.053 11.8697 114.23C12.0235 114.406 12.1388 114.622 12.2157 114.868C12.2925 115.121 12.331 115.406 12.331 115.721H12.3387ZM11.6237 115.767C11.6237 115.567 11.6083 115.367 11.5699 115.19C11.5315 115.006 11.47 114.852 11.3854 114.714C11.3008 114.575 11.1778 114.468 11.0318 114.391C10.8857 114.314 10.6935 114.268 10.4706 114.268C10.263 114.268 10.0862 114.306 9.94015 114.376C9.79409 114.445 9.67109 114.552 9.57115 114.683C9.4789 114.814 9.40203 114.975 9.3559 115.152C9.30978 115.329 9.28672 115.529 9.28672 115.744C9.28672 115.959 9.30209 116.144 9.34053 116.328C9.37896 116.513 9.44046 116.666 9.53271 116.805C9.62496 116.943 9.74028 117.051 9.88634 117.128C10.0324 117.205 10.2246 117.251 10.4475 117.251C10.6474 117.251 10.8242 117.212 10.978 117.143C11.124 117.074 11.247 116.966 11.347 116.836C11.4469 116.705 11.5161 116.551 11.5545 116.367C11.6007 116.182 11.6237 115.982 11.6237 115.767Z" fill="#384E67"/>
<path d="M16.5974 117.643C16.5974 117.643 16.5974 117.681 16.582 117.697C16.5743 117.712 16.5513 117.727 16.5282 117.735C16.5051 117.743 16.4667 117.758 16.4206 117.758C16.3745 117.758 16.3206 117.766 16.2515 117.766C16.1823 117.766 16.1208 117.766 16.0823 117.758C16.0362 117.758 16.0055 117.743 15.9747 117.735C15.944 117.727 15.9286 117.712 15.9209 117.697C15.9132 117.681 15.9055 117.666 15.9055 117.643V115.436C15.9055 115.221 15.8901 115.052 15.8594 114.921C15.8286 114.791 15.7748 114.675 15.7133 114.583C15.6518 114.491 15.5673 114.414 15.4673 114.368C15.3674 114.314 15.2444 114.291 15.1137 114.291C14.9369 114.291 14.7678 114.353 14.591 114.476C14.4141 114.599 14.2373 114.775 14.0451 115.014V117.643C14.0451 117.643 14.0451 117.681 14.0298 117.697C14.0221 117.712 13.999 117.727 13.976 117.735C13.9529 117.743 13.9145 117.758 13.8683 117.758C13.8222 117.758 13.7684 117.766 13.6992 117.766C13.63 117.766 13.5762 117.766 13.5301 117.758C13.484 117.758 13.4532 117.743 13.4225 117.735C13.3917 117.727 13.3763 117.712 13.3686 117.697C13.361 117.681 13.3533 117.666 13.3533 117.643V113.876C13.3533 113.876 13.3533 113.837 13.3686 113.822C13.3763 113.807 13.3917 113.791 13.4148 113.784C13.4378 113.768 13.4686 113.761 13.5147 113.761C13.5608 113.761 13.607 113.761 13.6685 113.761C13.73 113.761 13.7838 113.761 13.8222 113.761C13.8606 113.761 13.8914 113.776 13.9145 113.784C13.9375 113.799 13.9529 113.814 13.9606 113.822C13.9683 113.837 13.976 113.853 13.976 113.876V114.376C14.1912 114.137 14.3988 113.968 14.6063 113.853C14.8139 113.738 15.0291 113.691 15.2444 113.691C15.4981 113.691 15.7056 113.73 15.8748 113.822C16.0439 113.907 16.1823 114.022 16.2899 114.16C16.3975 114.306 16.4744 114.468 16.5205 114.66C16.5666 114.852 16.5897 115.083 16.5897 115.352V117.65L16.5974 117.643Z" fill="#384E67"/>
<path d="M21.0868 117.643C21.0868 117.643 21.0868 117.682 21.0714 117.705C21.0637 117.72 21.0484 117.736 21.0176 117.743C20.9869 117.751 20.9638 117.759 20.9254 117.766C20.8869 117.766 20.8408 117.774 20.7793 117.774C20.7178 117.774 20.6717 117.774 20.6332 117.766C20.5948 117.766 20.5641 117.751 20.5333 117.743C20.5026 117.736 20.4872 117.72 20.4795 117.705C20.4718 117.69 20.4641 117.667 20.4641 117.643V117.144C20.2642 117.359 20.0567 117.528 19.8491 117.643C19.6416 117.759 19.4032 117.82 19.1496 117.82C18.8728 117.82 18.6345 117.766 18.4423 117.659C18.2501 117.551 18.0887 117.405 17.9657 117.221C17.8427 117.036 17.7581 116.821 17.6966 116.575C17.6428 116.329 17.6121 116.068 17.6121 115.791C17.6121 115.468 17.6428 115.176 17.7197 114.914C17.7889 114.653 17.8965 114.43 18.0272 114.246C18.1656 114.061 18.3347 113.923 18.5346 113.823C18.7344 113.723 18.9727 113.677 19.2341 113.677C19.4571 113.677 19.6569 113.723 19.8414 113.823C20.0259 113.915 20.2027 114.061 20.3872 114.246V112.055C20.3872 112.055 20.3872 112.016 20.4026 112.001C20.4103 111.985 20.4334 111.97 20.4564 111.962C20.4872 111.955 20.5179 111.947 20.5641 111.939C20.6102 111.939 20.664 111.932 20.7255 111.932C20.787 111.932 20.8562 111.932 20.8946 111.939C20.9407 111.939 20.9715 111.955 21.0022 111.962C21.033 111.97 21.0484 111.985 21.0561 112.001C21.0714 112.016 21.0714 112.039 21.0714 112.055V117.628L21.0868 117.643ZM20.3949 114.999C20.2104 114.768 20.0259 114.592 19.8491 114.469C19.6723 114.346 19.4955 114.284 19.3033 114.284C19.1265 114.284 18.9804 114.322 18.8574 114.407C18.7344 114.492 18.6345 114.599 18.5576 114.738C18.4807 114.876 18.4269 115.03 18.3885 115.199C18.3501 115.376 18.3347 115.545 18.3347 115.729C18.3347 115.921 18.3501 116.106 18.3808 116.283C18.4116 116.467 18.4577 116.629 18.5346 116.767C18.6037 116.905 18.7037 117.021 18.8267 117.105C18.9497 117.19 19.0957 117.236 19.2802 117.236C19.3725 117.236 19.4647 117.221 19.5493 117.198C19.6339 117.175 19.7184 117.128 19.8107 117.075C19.9029 117.021 19.9952 116.944 20.0951 116.844C20.1951 116.752 20.295 116.636 20.4026 116.498V114.991L20.3949 114.999Z" fill="#384E67"/>
<path d="M24.7308 116.62C24.7308 116.813 24.6924 116.982 24.6232 117.136C24.554 117.289 24.454 117.412 24.3234 117.52C24.1927 117.62 24.0389 117.704 23.8544 117.751C23.6699 117.797 23.47 117.827 23.2548 117.827C23.1241 117.827 22.9934 117.82 22.8704 117.797C22.7474 117.774 22.6398 117.751 22.5475 117.72C22.4553 117.689 22.3707 117.658 22.3015 117.62C22.2324 117.589 22.1862 117.551 22.1555 117.528C22.1247 117.497 22.1017 117.458 22.0863 117.412C22.0709 117.366 22.0632 117.297 22.0632 117.205C22.0632 117.151 22.0632 117.105 22.0709 117.074C22.0709 117.036 22.0863 117.013 22.094 116.989C22.1017 116.966 22.117 116.951 22.1324 116.943C22.1478 116.936 22.1632 116.928 22.1862 116.928C22.217 116.928 22.2631 116.951 22.3246 116.982C22.3861 117.013 22.4553 117.059 22.5475 117.105C22.6321 117.151 22.7397 117.189 22.8627 117.228C22.9857 117.266 23.1241 117.282 23.2779 117.282C23.3932 117.282 23.5008 117.266 23.593 117.243C23.6853 117.22 23.7699 117.182 23.839 117.136C23.9082 117.089 23.962 117.028 24.0005 116.951C24.0389 116.874 24.0543 116.79 24.0543 116.682C24.0543 116.574 24.0235 116.49 23.9697 116.413C23.9159 116.344 23.8467 116.275 23.7545 116.221C23.6622 116.167 23.5623 116.113 23.4547 116.075C23.3394 116.029 23.2317 115.982 23.1087 115.936C22.9934 115.89 22.8781 115.836 22.7628 115.775C22.6475 115.713 22.5475 115.644 22.4553 115.552C22.363 115.46 22.2939 115.36 22.24 115.244C22.1862 115.121 22.1555 114.983 22.1555 114.814C22.1555 114.668 22.1862 114.522 22.24 114.391C22.2939 114.253 22.3861 114.137 22.4937 114.037C22.609 113.938 22.7474 113.853 22.9242 113.791C23.0934 113.73 23.2932 113.699 23.5239 113.699C23.6238 113.699 23.7237 113.707 23.8237 113.722C23.9236 113.738 24.0159 113.761 24.0927 113.784C24.1773 113.807 24.2465 113.838 24.3003 113.868C24.3541 113.899 24.4002 113.922 24.431 113.945C24.4617 113.968 24.4771 113.984 24.4925 114.007C24.5002 114.022 24.5079 114.045 24.5155 114.061C24.5155 114.084 24.5232 114.107 24.5309 114.137C24.5386 114.168 24.5309 114.207 24.5309 114.253C24.5309 114.299 24.5309 114.345 24.5309 114.376C24.5309 114.414 24.5232 114.437 24.5079 114.46C24.5002 114.483 24.4848 114.499 24.4694 114.506C24.454 114.514 24.4387 114.522 24.4233 114.522C24.4002 114.522 24.3618 114.506 24.3157 114.476C24.2695 114.445 24.208 114.414 24.1312 114.376C24.0543 114.337 23.9697 114.307 23.8621 114.276C23.7545 114.245 23.6469 114.23 23.5162 114.23C23.4009 114.23 23.2932 114.245 23.2087 114.268C23.1164 114.299 23.0472 114.33 22.9857 114.383C22.9319 114.43 22.8858 114.491 22.855 114.56C22.8243 114.629 22.8089 114.699 22.8089 114.775C22.8089 114.883 22.8397 114.975 22.8935 115.052C22.9473 115.129 23.0242 115.191 23.1087 115.244C23.201 115.298 23.3009 115.352 23.4162 115.398C23.5315 115.444 23.6469 115.49 23.7699 115.537C23.8852 115.583 24.0082 115.636 24.1235 115.698C24.2388 115.759 24.3387 115.829 24.431 115.913C24.5232 115.998 24.5924 116.098 24.6462 116.213C24.7 116.328 24.7308 116.467 24.7308 116.628V116.62Z" fill="#384E67"/>
<path d="M30.8808 117.643C30.8808 117.643 30.8808 117.682 30.8654 117.705C30.8577 117.72 30.8423 117.736 30.8116 117.743C30.7808 117.751 30.7578 117.759 30.7193 117.766C30.6809 117.766 30.6348 117.774 30.5733 117.774C30.5118 117.774 30.4656 117.774 30.4272 117.766C30.3888 117.766 30.358 117.751 30.3273 117.743C30.2965 117.736 30.2811 117.72 30.2734 117.705C30.2658 117.69 30.2581 117.667 30.2581 117.643V117.144C30.0582 117.359 29.8506 117.528 29.6431 117.643C29.4355 117.759 29.1972 117.82 28.9435 117.82C28.6668 117.82 28.4284 117.766 28.2363 117.659C28.0441 117.551 27.8826 117.405 27.7596 117.221C27.6366 117.036 27.5521 116.821 27.4906 116.575C27.4368 116.329 27.406 116.068 27.406 115.791C27.406 115.468 27.4368 115.176 27.5136 114.914C27.5828 114.653 27.6904 114.43 27.8211 114.246C27.9595 114.061 28.1286 113.923 28.3285 113.823C28.5284 113.723 28.7667 113.677 29.0281 113.677C29.251 113.677 29.4509 113.723 29.6354 113.823C29.8199 113.915 29.9967 114.061 30.1812 114.246V112.055C30.1812 112.055 30.1812 112.016 30.1966 112.001C30.2043 111.985 30.2273 111.97 30.2504 111.962C30.2811 111.955 30.3119 111.947 30.358 111.939C30.4041 111.939 30.4579 111.932 30.5194 111.932C30.5809 111.932 30.6501 111.932 30.6886 111.939C30.7347 111.939 30.7654 111.955 30.7962 111.962C30.8269 111.97 30.8423 111.985 30.85 112.001C30.8654 112.016 30.8654 112.039 30.8654 112.055V117.628L30.8808 117.643ZM30.1889 114.999C30.0044 114.768 29.8199 114.592 29.6431 114.469C29.4663 114.346 29.2894 114.284 29.0973 114.284C28.9204 114.284 28.7744 114.322 28.6514 114.407C28.5284 114.492 28.4284 114.599 28.3516 114.738C28.2747 114.876 28.2209 115.03 28.1824 115.199C28.144 115.376 28.1286 115.545 28.1286 115.729C28.1286 115.921 28.144 116.106 28.1748 116.283C28.2055 116.467 28.2516 116.629 28.3285 116.767C28.3977 116.905 28.4976 117.021 28.6206 117.105C28.7436 117.19 28.8897 117.236 29.0742 117.236C29.1664 117.236 29.2587 117.221 29.3433 117.198C29.4278 117.175 29.5124 117.128 29.6046 117.075C29.6969 117.021 29.7891 116.944 29.8891 116.844C29.989 116.752 30.0889 116.636 30.1966 116.498V114.991L30.1889 114.999Z" fill="#384E67"/>
<path d="M35.3702 115.599C35.3702 115.707 35.3395 115.784 35.2857 115.83C35.2319 115.876 35.1704 115.899 35.1012 115.899H32.6181C32.6181 116.107 32.6412 116.299 32.6796 116.46C32.7181 116.622 32.7949 116.776 32.8872 116.891C32.9871 117.014 33.1101 117.106 33.2716 117.168C33.4253 117.229 33.6175 117.26 33.8481 117.26C34.0249 117.26 34.1864 117.245 34.3248 117.214C34.4631 117.183 34.5861 117.152 34.6861 117.114C34.786 117.075 34.8706 117.045 34.9398 117.014C35.0089 116.983 35.0551 116.968 35.0858 116.968C35.1089 116.968 35.1243 116.968 35.1396 116.983C35.155 116.999 35.1704 117.006 35.1781 117.029C35.1857 117.052 35.1934 117.075 35.1934 117.114C35.1934 117.152 35.1934 117.191 35.1934 117.245C35.1934 117.283 35.1934 117.314 35.1934 117.337C35.1934 117.36 35.1934 117.391 35.1858 117.406C35.1858 117.429 35.1781 117.444 35.1627 117.46C35.1473 117.475 35.1396 117.491 35.1242 117.506C35.1089 117.521 35.0627 117.544 34.9859 117.583C34.909 117.621 34.8091 117.652 34.6938 117.683C34.5708 117.714 34.4324 117.744 34.2786 117.775C34.1249 117.806 33.9558 117.813 33.7713 117.813C33.4638 117.813 33.187 117.767 32.9564 117.683C32.7258 117.598 32.5259 117.468 32.3644 117.298C32.203 117.129 32.0877 116.914 32.0031 116.66C31.9263 116.407 31.8801 116.107 31.8801 115.761C31.8801 115.415 31.9186 115.146 32.0031 114.885C32.0877 114.631 32.2107 114.408 32.3644 114.231C32.5182 114.054 32.7104 113.916 32.9333 113.816C33.1563 113.724 33.4099 113.67 33.679 113.67C33.9711 113.67 34.2248 113.716 34.4324 113.808C34.6399 113.901 34.8091 114.031 34.9474 114.193C35.0781 114.354 35.1781 114.539 35.2396 114.762C35.3011 114.977 35.3318 115.207 35.3318 115.453V115.576L35.3702 115.599ZM34.6784 115.392C34.6861 115.031 34.6092 114.746 34.4401 114.539C34.2709 114.331 34.0173 114.231 33.6867 114.231C33.5176 114.231 33.3638 114.262 33.2331 114.323C33.1024 114.385 32.9948 114.469 32.9103 114.577C32.8257 114.685 32.7565 114.808 32.7104 114.946C32.6643 115.084 32.6335 115.238 32.6335 115.384H34.6861L34.6784 115.392Z" fill="#384E67"/>
<path d="M41.5895 117.643C41.5895 117.643 41.5895 117.682 41.5741 117.705C41.5664 117.72 41.5511 117.736 41.5203 117.743C41.4896 117.751 41.4665 117.759 41.4281 117.766C41.3896 117.766 41.3435 117.774 41.282 117.774C41.2205 117.774 41.1744 117.774 41.1359 117.766C41.0975 117.766 41.0667 117.751 41.036 117.743C41.0052 117.736 40.9899 117.72 40.9822 117.705C40.9745 117.69 40.9668 117.667 40.9668 117.643V117.144C40.7669 117.359 40.5594 117.528 40.3518 117.643C40.1442 117.759 39.9059 117.82 39.6522 117.82C39.3755 117.82 39.1372 117.766 38.945 117.659C38.7528 117.551 38.5914 117.405 38.4684 117.221C38.3454 117.036 38.2608 116.821 38.1993 116.575C38.1455 116.329 38.1147 116.068 38.1147 115.791C38.1147 115.468 38.1455 115.176 38.2224 114.914C38.2916 114.653 38.3992 114.43 38.5299 114.246C38.6682 114.061 38.8374 113.923 39.0372 113.823C39.2371 113.723 39.4754 113.677 39.7368 113.677C39.9597 113.677 40.1596 113.723 40.3441 113.823C40.5286 113.915 40.7054 114.061 40.8899 114.246V112.055C40.8899 112.055 40.8899 112.016 40.9053 112.001C40.913 111.985 40.9361 111.97 40.9591 111.962C40.9899 111.955 41.0206 111.947 41.0667 111.939C41.1129 111.939 41.1667 111.932 41.2282 111.932C41.2897 111.932 41.3589 111.932 41.3973 111.939C41.4434 111.939 41.4742 111.955 41.5049 111.962C41.5357 111.97 41.5511 111.985 41.5587 112.001C41.5741 112.016 41.5741 112.039 41.5741 112.055V117.628L41.5895 117.643ZM40.8976 114.999C40.7131 114.768 40.5286 114.592 40.3518 114.469C40.175 114.346 39.9982 114.284 39.806 114.284C39.6292 114.284 39.4831 114.322 39.3601 114.407C39.2371 114.492 39.1372 114.599 39.0603 114.738C38.9834 114.876 38.9296 115.03 38.8912 115.199C38.8527 115.376 38.8374 115.545 38.8374 115.729C38.8374 115.921 38.8527 116.106 38.8835 116.283C38.9142 116.467 38.9604 116.629 39.0372 116.767C39.1064 116.905 39.2064 117.021 39.3294 117.105C39.4524 117.19 39.5984 117.236 39.7829 117.236C39.8752 117.236 39.9674 117.221 40.052 117.198C40.1366 117.175 40.2211 117.128 40.3134 117.075C40.4056 117.021 40.4979 116.944 40.5978 116.844C40.6977 116.752 40.7977 116.636 40.9053 116.498V114.991L40.8976 114.999Z" fill="#384E67"/>
<path d="M46.3711 115.721C46.3711 116.028 46.3327 116.313 46.2481 116.567C46.1712 116.828 46.0482 117.043 45.8868 117.235C45.7254 117.42 45.5255 117.566 45.2872 117.674C45.0489 117.781 44.7644 117.827 44.4492 117.827C44.1341 117.827 43.8727 117.781 43.6421 117.689C43.4114 117.597 43.2192 117.466 43.0655 117.289C42.9117 117.112 42.7964 116.897 42.7196 116.651C42.6427 116.397 42.6042 116.113 42.6042 115.798C42.6042 115.483 42.6427 115.206 42.7196 114.952C42.7964 114.691 42.9194 114.476 43.0809 114.283C43.2423 114.099 43.4422 113.953 43.6805 113.845C43.9188 113.745 44.2032 113.691 44.5184 113.691C44.8336 113.691 45.095 113.738 45.3256 113.83C45.5562 113.922 45.7484 114.053 45.9022 114.23C46.0559 114.406 46.1712 114.622 46.2481 114.868C46.325 115.121 46.3634 115.406 46.3634 115.721H46.3711ZM45.6562 115.767C45.6562 115.567 45.6408 115.367 45.6024 115.19C45.5639 115.006 45.5024 114.852 45.4179 114.714C45.3333 114.575 45.2103 114.468 45.0642 114.391C44.9182 114.314 44.726 114.268 44.5031 114.268C44.2955 114.268 44.1187 114.306 43.9726 114.376C43.8266 114.445 43.7036 114.552 43.6036 114.683C43.5114 114.814 43.4345 114.975 43.3884 115.152C43.3422 115.329 43.3192 115.529 43.3192 115.744C43.3192 115.959 43.3346 116.144 43.373 116.328C43.4114 116.513 43.4729 116.666 43.5652 116.805C43.6574 116.943 43.7728 117.051 43.9188 117.128C44.0649 117.205 44.2571 117.251 44.48 117.251C44.6799 117.251 44.8567 117.212 45.0104 117.143C45.1565 117.074 45.2795 116.966 45.3794 116.836C45.4794 116.705 45.5486 116.551 45.587 116.367C45.6331 116.182 45.6562 115.982 45.6562 115.767Z" fill="#384E67"/>
<path d="M49.3462 117.366C49.3462 117.443 49.3462 117.512 49.3309 117.558C49.3232 117.604 49.3001 117.643 49.2847 117.666C49.2617 117.689 49.2309 117.712 49.1848 117.727C49.1387 117.743 49.0925 117.766 49.031 117.773C48.9772 117.789 48.9157 117.796 48.8465 117.804C48.7774 117.812 48.7159 117.819 48.6544 117.819C48.4622 117.819 48.293 117.796 48.1547 117.743C48.0163 117.689 47.901 117.612 47.8087 117.504C47.7165 117.397 47.655 117.266 47.6165 117.105C47.5781 116.943 47.555 116.751 47.555 116.536V114.337H47.0246C46.9862 114.337 46.9477 114.314 46.9247 114.268C46.9016 114.222 46.8862 114.153 46.8862 114.053C46.8862 113.999 46.8862 113.953 46.8939 113.922C46.8939 113.883 46.9093 113.853 46.9247 113.83C46.9324 113.807 46.9477 113.791 46.9708 113.776C46.9862 113.768 47.0092 113.76 47.0323 113.76H47.555V112.861C47.555 112.861 47.555 112.823 47.5704 112.807C47.5858 112.792 47.6012 112.776 47.6242 112.761C47.6473 112.746 47.6857 112.738 47.7319 112.73C47.778 112.73 47.8318 112.723 47.901 112.723C47.9702 112.723 48.0317 112.723 48.0701 112.73C48.1162 112.73 48.147 112.746 48.1777 112.761C48.2008 112.776 48.2239 112.792 48.2315 112.807C48.2392 112.823 48.2469 112.838 48.2469 112.861V113.76H49.2155C49.2155 113.76 49.254 113.76 49.277 113.776C49.2924 113.784 49.3078 113.799 49.3232 113.83C49.3385 113.853 49.3462 113.883 49.3539 113.922C49.3616 113.96 49.3616 114.006 49.3616 114.053C49.3616 114.153 49.3462 114.229 49.3232 114.268C49.3001 114.314 49.2617 114.337 49.2232 114.337H48.2546V116.436C48.2546 116.697 48.293 116.889 48.3699 117.028C48.4468 117.158 48.5852 117.228 48.785 117.228C48.8465 117.228 48.908 117.228 48.9542 117.212C49.008 117.197 49.0464 117.189 49.0849 117.174C49.1233 117.158 49.154 117.143 49.1848 117.135C49.2155 117.12 49.2386 117.112 49.2617 117.112C49.277 117.112 49.2924 117.112 49.3001 117.12C49.3155 117.12 49.3232 117.143 49.3309 117.158C49.3309 117.181 49.3462 117.204 49.3462 117.235C49.3462 117.266 49.3539 117.312 49.3539 117.358L49.3462 117.366Z" fill="#384E67"/>
<path d="M52.99 117.65C52.99 117.65 52.9823 117.712 52.9593 117.727C52.9362 117.743 52.9055 117.758 52.867 117.766C52.8286 117.773 52.7748 117.781 52.6979 117.781C52.621 117.781 52.5672 117.781 52.5211 117.766C52.475 117.75 52.4442 117.743 52.4288 117.727C52.4058 117.712 52.3981 117.689 52.3981 117.65V117.274C52.2367 117.451 52.0522 117.589 51.8446 117.681C51.637 117.773 51.4295 117.827 51.1988 117.827C50.999 117.827 50.8222 117.804 50.6607 117.75C50.4993 117.697 50.3609 117.627 50.2533 117.527C50.138 117.428 50.0534 117.312 49.9919 117.166C49.9304 117.02 49.8997 116.859 49.8997 116.682C49.8997 116.467 49.9458 116.282 50.0303 116.128C50.1149 115.975 50.2379 115.844 50.3993 115.736C50.5608 115.636 50.7607 115.552 50.9913 115.506C51.2219 115.452 51.491 115.429 51.7831 115.429H52.3058V115.137C52.3058 114.991 52.2905 114.86 52.2597 114.752C52.229 114.645 52.1828 114.545 52.1137 114.476C52.0445 114.399 51.9599 114.345 51.8446 114.306C51.7293 114.268 51.5986 114.253 51.4448 114.253C51.2757 114.253 51.122 114.276 50.9836 114.314C50.8452 114.353 50.7299 114.399 50.63 114.445C50.53 114.491 50.4455 114.537 50.3763 114.575C50.3071 114.614 50.2533 114.637 50.2225 114.637C50.1995 114.637 50.1841 114.637 50.161 114.622C50.1457 114.614 50.1303 114.591 50.1149 114.568C50.0995 114.545 50.0918 114.514 50.0842 114.483C50.0842 114.445 50.0765 114.406 50.0765 114.368C50.0765 114.299 50.0765 114.245 50.0918 114.206C50.0995 114.168 50.1226 114.13 50.161 114.091C50.1995 114.053 50.261 114.014 50.3532 113.96C50.4455 113.914 50.5531 113.868 50.6684 113.83C50.7914 113.791 50.9221 113.753 51.0605 113.73C51.2065 113.699 51.3449 113.691 51.491 113.691C51.76 113.691 51.9907 113.722 52.1828 113.784C52.375 113.845 52.5288 113.937 52.6441 114.053C52.7594 114.168 52.844 114.322 52.8978 114.491C52.9516 114.66 52.9747 114.875 52.9747 115.106V117.643L52.99 117.65ZM52.3058 115.928H51.7139C51.5217 115.928 51.3603 115.944 51.2219 115.975C51.0835 116.005 50.9682 116.051 50.876 116.113C50.7837 116.174 50.7145 116.251 50.6761 116.336C50.63 116.42 50.6146 116.528 50.6146 116.643C50.6146 116.836 50.6761 116.997 50.7991 117.112C50.9221 117.228 51.0989 117.289 51.3218 117.289C51.5063 117.289 51.6678 117.243 51.8292 117.151C51.983 117.059 52.1444 116.92 52.3135 116.728V115.928H52.3058Z" fill="#384E67"/>
<path d="M57.4564 113.769C57.541 113.769 57.5948 113.785 57.6256 113.823C57.6563 113.862 57.6717 113.915 57.6717 113.985V117.636C57.6717 117.636 57.6717 117.675 57.6563 117.69C57.6486 117.705 57.6256 117.721 57.6025 117.728C57.5794 117.736 57.541 117.752 57.4949 117.752C57.4488 117.752 57.3949 117.759 57.3334 117.759C57.2643 117.759 57.2028 117.759 57.1643 117.752C57.1182 117.752 57.0874 117.736 57.0567 117.728C57.0336 117.721 57.0106 117.705 57.0029 117.69C56.9952 117.675 56.9875 117.659 56.9875 117.636V114.331H55.0426V116.429C55.0426 116.691 55.081 116.883 55.1579 117.021C55.2348 117.152 55.3731 117.221 55.573 117.221C55.6345 117.221 55.696 117.221 55.7421 117.206C55.7959 117.19 55.8344 117.183 55.8728 117.167C55.9113 117.152 55.942 117.137 55.9728 117.129C56.0035 117.113 56.0266 117.106 56.0496 117.106C56.065 117.106 56.0804 117.106 56.0881 117.113C56.1034 117.113 56.1111 117.137 56.1188 117.152C56.1188 117.175 56.1342 117.198 56.1342 117.229C56.1342 117.26 56.1419 117.306 56.1419 117.352C56.1419 117.429 56.1419 117.498 56.1265 117.544C56.1188 117.59 56.0958 117.629 56.0804 117.652C56.0573 117.675 56.0266 117.698 55.9804 117.713C55.9343 117.728 55.8882 117.752 55.8267 117.759C55.7729 117.775 55.7114 117.782 55.6422 117.79C55.573 117.798 55.5115 117.805 55.45 117.805C55.2578 117.805 55.0887 117.782 54.9503 117.728C54.8119 117.675 54.6966 117.598 54.6044 117.49C54.5121 117.383 54.4506 117.252 54.4122 117.09C54.3738 116.929 54.3507 116.737 54.3507 116.522V114.323H53.8203C53.7818 114.323 53.7434 114.3 53.7203 114.254C53.6973 114.208 53.6819 114.138 53.6819 114.038C53.6819 113.985 53.6819 113.939 53.6896 113.908C53.6896 113.869 53.7049 113.839 53.7203 113.816C53.728 113.792 53.7434 113.777 53.7664 113.762C53.7818 113.754 53.8049 113.746 53.8279 113.746H54.3507V112.847C54.3507 112.847 54.3507 112.808 54.3661 112.793C54.3814 112.778 54.3968 112.762 54.4199 112.747C54.4429 112.732 54.4814 112.724 54.5275 112.716C54.5736 112.716 54.6274 112.709 54.6966 112.709C54.7658 112.709 54.8273 112.709 54.8658 112.716C54.9119 112.716 54.9426 112.732 54.9734 112.747C54.9964 112.762 55.0195 112.778 55.0272 112.793C55.0349 112.808 55.0426 112.824 55.0426 112.847V113.746H57.4641L57.4564 113.769ZM57.7563 112.609C57.7563 112.77 57.7255 112.878 57.664 112.939C57.6025 113.001 57.4872 113.024 57.3258 113.024C57.1643 113.024 57.0567 112.993 56.9952 112.939C56.9337 112.885 56.9029 112.778 56.9029 112.616C56.9029 112.455 56.9337 112.347 56.9952 112.286C57.0567 112.224 57.172 112.201 57.3334 112.201C57.4949 112.201 57.6025 112.232 57.664 112.286C57.7255 112.347 57.7563 112.455 57.7563 112.609Z" fill="#384E67"/>
<path d="M62.461 115.721C62.461 116.028 62.4225 116.313 62.338 116.567C62.2611 116.828 62.1381 117.043 61.9767 117.235C61.8152 117.42 61.6153 117.566 61.377 117.674C61.1387 117.781 60.8543 117.827 60.5391 117.827C60.2239 117.827 59.9625 117.781 59.7319 117.689C59.5013 117.597 59.3091 117.466 59.1553 117.289C59.0016 117.112 58.8863 116.897 58.8094 116.651C58.7325 116.397 58.6941 116.113 58.6941 115.798C58.6941 115.483 58.7325 115.206 58.8094 114.952C58.8863 114.691 59.0093 114.476 59.1707 114.283C59.3322 114.099 59.532 113.953 59.7703 113.845C60.0087 113.745 60.2931 113.691 60.6083 113.691C60.9235 113.691 61.1848 113.738 61.4155 113.83C61.6461 113.922 61.8383 114.053 61.992 114.23C62.1458 114.406 62.2611 114.622 62.338 114.868C62.4148 115.121 62.4533 115.406 62.4533 115.721H62.461ZM61.746 115.767C61.746 115.567 61.7307 115.367 61.6922 115.19C61.6538 115.006 61.5923 114.852 61.5077 114.714C61.4232 114.575 61.3002 114.468 61.1541 114.391C61.008 114.314 60.8158 114.268 60.5929 114.268C60.3853 114.268 60.2085 114.306 60.0625 114.376C59.9164 114.445 59.7934 114.552 59.6935 114.683C59.6012 114.814 59.5243 114.975 59.4782 115.152C59.4321 115.329 59.409 115.529 59.409 115.744C59.409 115.959 59.4244 116.144 59.4628 116.328C59.5013 116.513 59.5628 116.666 59.655 116.805C59.7473 116.943 59.8626 117.051 60.0087 117.128C60.1547 117.205 60.3469 117.251 60.5698 117.251C60.7697 117.251 60.9465 117.212 61.1003 117.143C61.2463 117.074 61.3693 116.966 61.4693 116.836C61.5692 116.705 61.6384 116.551 61.6768 116.367C61.723 116.182 61.746 115.982 61.746 115.767Z" fill="#384E67"/>
<path d="M66.72 117.643C66.72 117.643 66.72 117.681 66.7046 117.697C66.6969 117.712 66.6738 117.727 66.6508 117.735C66.6277 117.743 66.5893 117.758 66.5431 117.758C66.497 117.758 66.4432 117.766 66.374 117.766C66.3048 117.766 66.2433 117.766 66.2049 117.758C66.1588 117.758 66.128 117.743 66.0973 117.735C66.0665 117.727 66.0511 117.712 66.0435 117.697C66.0358 117.681 66.0281 117.666 66.0281 117.643V115.436C66.0281 115.221 66.0127 115.052 65.9743 114.921C65.9435 114.791 65.8897 114.675 65.8282 114.583C65.7667 114.491 65.6821 114.414 65.5822 114.368C65.4823 114.314 65.3593 114.291 65.2286 114.291C65.0595 114.291 64.8826 114.353 64.7135 114.476C64.5367 114.599 64.3599 114.775 64.1677 115.014V117.643C64.1677 117.643 64.1677 117.681 64.1523 117.697C64.1446 117.712 64.1216 117.727 64.0985 117.735C64.0755 117.743 64.037 117.758 63.9909 117.758C63.9448 117.758 63.891 117.766 63.8218 117.766C63.7526 117.766 63.6988 117.766 63.6526 117.758C63.6065 117.758 63.5758 117.743 63.545 117.735C63.5143 117.727 63.4989 117.712 63.4912 117.697C63.4835 117.681 63.4758 117.666 63.4758 117.643V113.876C63.4758 113.876 63.4758 113.837 63.4912 113.822C63.4989 113.807 63.5143 113.791 63.545 113.784C63.5681 113.768 63.5988 113.761 63.6373 113.761C63.6757 113.761 63.7295 113.761 63.791 113.761C63.8525 113.761 63.9063 113.761 63.9448 113.761C63.9832 113.761 64.014 113.776 64.037 113.784C64.0601 113.799 64.0755 113.814 64.0831 113.822C64.0908 113.837 64.0985 113.853 64.0985 113.876V114.376C64.3138 114.137 64.5213 113.968 64.7366 113.853C64.9441 113.745 65.1594 113.691 65.3746 113.691C65.6283 113.691 65.8359 113.73 66.0127 113.822C66.1818 113.907 66.3202 114.022 66.4278 114.16C66.5355 114.306 66.6123 114.468 66.6585 114.66C66.7046 114.852 66.7276 115.083 66.7276 115.352V117.65L66.72 117.643Z" fill="#384E67"/>
<path d="M70.3485 116.62C70.3485 116.813 70.31 116.982 70.2408 117.136C70.1717 117.289 70.0717 117.412 69.941 117.52C69.8103 117.62 69.6566 117.704 69.4721 117.751C69.2876 117.804 69.0877 117.827 68.8725 117.827C68.7418 117.827 68.6111 117.82 68.4881 117.797C68.3651 117.774 68.2575 117.751 68.1652 117.72C68.073 117.689 67.9884 117.658 67.9192 117.62C67.85 117.589 67.8039 117.551 67.7732 117.528C67.7424 117.505 67.7193 117.458 67.704 117.412C67.6886 117.358 67.6809 117.297 67.6809 117.205C67.6809 117.151 67.6809 117.105 67.6886 117.074C67.6886 117.036 67.704 117.013 67.7117 116.989C67.7193 116.966 67.7347 116.951 67.7501 116.943C67.7655 116.936 67.7808 116.928 67.8039 116.928C67.8347 116.928 67.8808 116.951 67.9423 116.982C68.0038 117.013 68.073 117.059 68.1652 117.105C68.2575 117.151 68.3574 117.189 68.4804 117.228C68.6034 117.266 68.7418 117.282 68.8955 117.282C69.0108 117.282 69.1185 117.266 69.2107 117.243C69.303 117.22 69.3875 117.182 69.4567 117.136C69.5259 117.089 69.5797 117.028 69.6182 116.951C69.6566 116.874 69.672 116.79 69.672 116.682C69.672 116.574 69.6412 116.49 69.5874 116.413C69.5336 116.344 69.4644 116.275 69.3722 116.221C69.2799 116.167 69.18 116.113 69.0723 116.075C68.957 116.029 68.8494 115.982 68.7264 115.936C68.6111 115.89 68.4958 115.836 68.3805 115.775C68.2652 115.713 68.1652 115.644 68.0807 115.552C67.9961 115.46 67.9192 115.36 67.8654 115.244C67.8116 115.121 67.7808 114.983 67.7808 114.814C67.7808 114.668 67.8116 114.522 67.8654 114.391C67.9192 114.253 68.0115 114.137 68.1191 114.037C68.2344 113.938 68.3728 113.853 68.5496 113.791C68.7187 113.73 68.9186 113.699 69.1492 113.699C69.2492 113.699 69.3491 113.707 69.449 113.722C69.549 113.738 69.6412 113.761 69.7181 113.784C69.8027 113.807 69.8718 113.838 69.9257 113.868C69.9795 113.899 70.0256 113.922 70.0563 113.945C70.0871 113.968 70.1025 113.984 70.1178 114.007C70.1255 114.022 70.1332 114.045 70.1409 114.061C70.1409 114.084 70.1486 114.107 70.1563 114.137C70.1563 114.168 70.1563 114.207 70.1563 114.253C70.1563 114.299 70.1563 114.345 70.1563 114.376C70.1563 114.414 70.1486 114.437 70.1332 114.46C70.1255 114.483 70.1102 114.499 70.0948 114.506C70.0794 114.514 70.064 114.522 70.0487 114.522C70.0256 114.522 69.9872 114.506 69.941 114.476C69.8949 114.445 69.8334 114.414 69.7565 114.376C69.6797 114.337 69.5951 114.307 69.4875 114.276C69.3875 114.245 69.2722 114.23 69.1338 114.23C69.0185 114.23 68.9109 114.245 68.8263 114.268C68.7341 114.299 68.6649 114.33 68.6034 114.383C68.5419 114.43 68.5035 114.491 68.4727 114.56C68.442 114.629 68.4266 114.699 68.4266 114.775C68.4266 114.883 68.4573 114.975 68.5112 115.052C68.565 115.129 68.6418 115.191 68.7264 115.244C68.8187 115.298 68.9186 115.352 69.0339 115.398C69.1492 115.444 69.2645 115.49 69.3798 115.537C69.4952 115.583 69.6182 115.636 69.7335 115.698C69.8488 115.759 69.9487 115.829 70.041 115.913C70.1332 115.998 70.2024 116.098 70.2562 116.213C70.31 116.328 70.3408 116.467 70.3408 116.628L70.3485 116.62Z" fill="#384E67"/>
<path d="M76.1986 112.647C76.1986 112.701 76.1986 112.747 76.1909 112.786C76.1909 112.824 76.1756 112.855 76.1602 112.878C76.1448 112.901 76.1294 112.916 76.1141 112.932C76.0987 112.947 76.0756 112.947 76.0603 112.947H74.0769V114.792H75.9526C75.9526 114.792 75.9911 114.792 76.0064 114.808C76.0218 114.823 76.0372 114.831 76.0526 114.854C76.0679 114.877 76.0756 114.907 76.0833 114.946C76.0833 114.984 76.091 115.03 76.091 115.092C76.091 115.146 76.091 115.192 76.0833 115.23C76.0833 115.269 76.0679 115.3 76.0526 115.323C76.0372 115.346 76.0218 115.361 76.0064 115.376C75.9911 115.392 75.968 115.392 75.9526 115.392H74.0769V117.644C74.0769 117.644 74.0769 117.683 74.0615 117.698C74.0538 117.713 74.0308 117.729 74 117.736C73.9693 117.744 73.9385 117.752 73.8924 117.76C73.8463 117.76 73.7924 117.767 73.7156 117.767C73.6464 117.767 73.5926 117.767 73.5464 117.76C73.5003 117.76 73.4619 117.744 73.4311 117.736C73.4004 117.729 73.385 117.713 73.3696 117.698C73.3619 117.683 73.3542 117.66 73.3542 117.644V112.632C73.3542 112.524 73.385 112.447 73.4388 112.401C73.4926 112.355 73.5541 112.34 73.6233 112.34H76.0603C76.0603 112.34 76.0987 112.34 76.1141 112.355C76.1294 112.363 76.1448 112.386 76.1602 112.409C76.1756 112.432 76.1832 112.471 76.1909 112.509C76.1909 112.547 76.1986 112.594 76.1986 112.647Z" fill="#384E67"/>
<path d="M80.3038 117.452C80.3038 117.506 80.3038 117.544 80.2961 117.583C80.2961 117.621 80.2807 117.652 80.2653 117.675C80.25 117.698 80.2346 117.721 80.2192 117.729C80.2038 117.736 80.1808 117.744 80.1577 117.744H77.5593C77.4978 117.744 77.4363 117.721 77.3748 117.683C77.321 117.636 77.2903 117.56 77.2903 117.452V112.624C77.2903 112.517 77.321 112.44 77.3748 112.394C77.4287 112.347 77.4902 112.332 77.5593 112.332H80.127C80.127 112.332 80.1731 112.332 80.1885 112.347C80.2038 112.355 80.2192 112.378 80.2346 112.401C80.2423 112.424 80.2577 112.455 80.2653 112.493C80.273 112.532 80.273 112.578 80.273 112.632C80.273 112.686 80.273 112.724 80.2653 112.763C80.2577 112.801 80.25 112.832 80.2346 112.855C80.2269 112.878 80.2115 112.893 80.1885 112.909C80.1654 112.924 80.15 112.924 80.127 112.924H78.0129V114.623H79.8272C79.8272 114.623 79.8733 114.623 79.8887 114.638C79.904 114.654 79.9194 114.669 79.9348 114.692C79.9502 114.715 79.9578 114.746 79.9655 114.784C79.9655 114.823 79.9732 114.869 79.9732 114.923C79.9732 114.969 79.9732 115.015 79.9655 115.053C79.9655 115.092 79.9502 115.123 79.9348 115.146C79.9194 115.169 79.904 115.184 79.8887 115.192C79.8733 115.199 79.8502 115.207 79.8272 115.207H78.0129V117.144H80.1577C80.1577 117.144 80.2038 117.144 80.2192 117.16C80.2346 117.175 80.25 117.191 80.2653 117.214C80.2807 117.237 80.2884 117.267 80.2961 117.306C80.2961 117.344 80.3038 117.39 80.3038 117.444V117.452Z" fill="#384E67"/>
<path d="M85.3774 117.644C85.3774 117.644 85.3774 117.682 85.362 117.705C85.3467 117.728 85.3313 117.736 85.3005 117.744C85.2698 117.751 85.239 117.759 85.1929 117.767C85.1468 117.767 85.093 117.775 85.0238 117.775C84.9546 117.775 84.8931 117.775 84.847 117.767C84.8009 117.767 84.7701 117.751 84.7394 117.744C84.7086 117.736 84.6932 117.721 84.6779 117.705C84.6702 117.69 84.6625 117.667 84.6625 117.644V115.245H82.1948V117.644C82.1948 117.644 82.1948 117.682 82.1794 117.705C82.164 117.728 82.1487 117.736 82.1179 117.744C82.0872 117.751 82.0564 117.759 82.0103 117.767C81.9642 117.767 81.9027 117.775 81.8335 117.775C81.7643 117.775 81.7105 117.775 81.6644 117.767C81.6182 117.767 81.5798 117.751 81.549 117.744C81.5183 117.736 81.5029 117.721 81.4875 117.705C81.4722 117.69 81.4722 117.667 81.4722 117.644V112.447C81.4722 112.447 81.4722 112.409 81.4875 112.386C81.5029 112.363 81.5183 112.355 81.549 112.347C81.5798 112.339 81.6182 112.332 81.6644 112.324C81.7105 112.324 81.772 112.316 81.8335 112.316C81.895 112.316 81.9642 112.316 82.0103 112.324C82.0564 112.324 82.0949 112.339 82.1179 112.347C82.1487 112.355 82.164 112.37 82.1794 112.386C82.1948 112.401 82.1948 112.424 82.1948 112.447V114.615H84.6625V112.447C84.6625 112.447 84.6625 112.409 84.6779 112.386C84.6855 112.37 84.7086 112.355 84.7394 112.347C84.7701 112.339 84.8009 112.332 84.847 112.324C84.8931 112.324 84.9469 112.316 85.0238 112.316C85.093 112.316 85.1468 112.316 85.1929 112.324C85.239 112.324 85.2775 112.339 85.3005 112.347C85.3236 112.355 85.3467 112.37 85.362 112.386C85.3774 112.401 85.3774 112.424 85.3774 112.447V117.644Z" fill="#384E67"/>
<path d="M90.874 117.498C90.897 117.559 90.9047 117.606 90.9124 117.644C90.9201 117.682 90.9047 117.713 90.8817 117.729C90.8586 117.752 90.8202 117.759 90.774 117.767C90.7202 117.767 90.651 117.775 90.5665 117.775C90.4819 117.775 90.4127 117.775 90.3589 117.775C90.3051 117.775 90.2667 117.767 90.2436 117.752C90.2128 117.744 90.1975 117.729 90.1821 117.713C90.1667 117.698 90.159 117.675 90.1437 117.652L89.6824 116.329H87.43L86.9841 117.629C86.9841 117.629 86.961 117.675 86.9533 117.69C86.938 117.705 86.9226 117.721 86.8918 117.736C86.8611 117.752 86.8303 117.759 86.7765 117.767C86.7304 117.767 86.6612 117.775 86.5843 117.775C86.5075 117.775 86.4383 117.775 86.3845 117.767C86.3307 117.767 86.2999 117.744 86.2768 117.729C86.2538 117.713 86.2461 117.682 86.2461 117.644C86.2461 117.606 86.2615 117.559 86.2845 117.498L88.0988 112.47C88.0988 112.47 88.1218 112.416 88.1449 112.393C88.168 112.37 88.191 112.363 88.2218 112.347C88.2525 112.34 88.2987 112.332 88.3525 112.324C88.4063 112.324 88.4755 112.324 88.56 112.324C88.6523 112.324 88.7215 112.324 88.783 112.324C88.8445 112.324 88.8906 112.34 88.9213 112.347C88.9521 112.355 88.9828 112.378 89.0059 112.393C89.029 112.409 89.0367 112.44 89.052 112.47L90.8663 117.498H90.874ZM88.5447 113.055L87.6145 115.753H89.4979L88.5523 113.055H88.5447Z" fill="#384E67"/>
<path d="M95.1022 113.923C95.1022 114.192 95.0561 114.438 94.9716 114.654C94.887 114.869 94.7563 115.053 94.5872 115.207C94.4181 115.361 94.2182 115.476 93.9799 115.561C93.7416 115.645 93.4494 115.684 93.1189 115.684H92.5039V117.636C92.5039 117.636 92.5039 117.675 92.4885 117.698C92.4731 117.721 92.4578 117.729 92.427 117.736C92.3963 117.744 92.3655 117.752 92.3194 117.759C92.2732 117.759 92.2118 117.767 92.1426 117.767C92.0734 117.767 92.0119 117.767 91.9657 117.759C91.9196 117.759 91.8812 117.744 91.8581 117.736C91.8351 117.729 91.812 117.713 91.7966 117.698C91.7813 117.683 91.7812 117.659 91.7812 117.636V112.64C91.7812 112.524 91.812 112.447 91.8658 112.401C91.9196 112.355 91.9888 112.332 92.0657 112.332H93.2265C93.3418 112.332 93.4571 112.332 93.5647 112.347C93.6724 112.355 93.8031 112.378 93.9491 112.409C94.0952 112.44 94.2413 112.501 94.395 112.586C94.5488 112.67 94.6794 112.778 94.7794 112.909C94.8793 113.039 94.9639 113.185 95.0254 113.354C95.0869 113.524 95.1099 113.708 95.1099 113.916L95.1022 113.923ZM94.3489 113.977C94.3489 113.754 94.3104 113.57 94.2259 113.424C94.1413 113.278 94.0414 113.17 93.9184 113.093C93.7954 113.016 93.6724 112.978 93.5417 112.955C93.411 112.932 93.288 112.924 93.165 112.924H92.4962V115.1H93.1419C93.3572 115.1 93.5417 115.069 93.6878 115.015C93.8338 114.961 93.9491 114.884 94.0491 114.784C94.149 114.684 94.2182 114.569 94.272 114.431C94.3258 114.292 94.3489 114.139 94.3489 113.977Z" fill="#384E67"/>
<path d="M7.0033 105.535C5.95011 105.535 5.41968 105.004 5.41968 103.951V84.7863C5.41968 83.1335 5.68874 81.965 6.23455 81.2732C6.78036 80.589 7.54912 80.0508 8.53312 79.6665C9.48637 79.2821 10.4934 79.0053 11.5697 78.8516C12.6459 78.6902 13.6761 78.6133 14.6601 78.6133C18.2886 78.6133 20.8408 79.4589 22.3168 81.1502C23.7928 82.8414 24.5385 85.4628 24.5385 89.0145V103.959C24.5385 105.012 24.0081 105.543 22.9549 105.543H20.1566C19.1034 105.543 18.573 105.012 18.573 103.959V88.484C18.573 87.4308 18.45 86.5775 18.204 85.9241C17.958 85.2707 17.5582 84.7863 17.0124 84.4712C16.4666 84.156 15.7209 83.9945 14.7677 83.9945C14.2757 83.9945 13.7991 84.0099 13.3455 84.0483C12.8842 84.0868 12.4999 84.156 12.1847 84.2559C11.8695 84.3635 11.6542 84.5173 11.5543 84.7325C11.4467 84.9478 11.3929 85.3168 11.3929 85.8395V103.951C11.3929 105.004 10.8624 105.535 9.80924 105.535H7.01099H7.0033Z" fill="#384E67"/>
<path d="M38.7373 106.065C35.6008 106.065 33.2023 105.081 31.5264 103.106C29.8505 101.138 29.0203 98.2472 29.0203 94.4495V90.2291C29.0203 86.4622 29.889 83.5871 31.634 81.596C33.3791 79.605 35.8852 78.6133 39.1601 78.6133C42.4349 78.6133 44.6951 79.605 46.371 81.596C48.0391 83.5871 48.8771 86.4776 48.8771 90.2829V94.4572C48.8771 98.2625 48.0084 101.145 46.2633 103.113C44.5183 105.089 42.0121 106.073 38.7373 106.073V106.065ZM38.8449 100.684C41.4817 100.684 42.804 99.3618 42.804 96.725V88.0151C42.804 86.6775 42.4888 85.6781 41.8507 85.0093C41.2203 84.3405 40.2824 84.0022 39.0525 84.0022C36.4156 84.0022 35.0934 85.3245 35.0934 87.9613V96.6712C35.0934 98.0088 35.4163 99.0159 36.0697 99.6847C36.7231 100.354 37.6456 100.692 38.8449 100.692V100.684Z" fill="#384E67"/>
<path d="M61.4845 94.7115H63.5294C63.6678 94.7115 63.7908 94.6577 63.8984 94.55C64.006 94.4424 64.0752 94.2656 64.106 94.0196L66.7735 80.7125C66.9811 79.6593 67.6038 79.1289 68.6185 79.1289H71.5244C72.124 79.1289 72.5315 79.2673 72.739 79.5517C72.9466 79.8362 72.985 80.2205 72.8467 80.7125L68.7723 97.4021C68.4571 98.6321 68.0343 99.4547 67.5038 99.8544C66.9734 100.262 66.1509 100.462 65.0208 100.462H59.7395C58.6094 100.462 57.7869 100.262 57.2564 99.8544C56.726 99.447 56.3032 98.6321 55.988 97.4021L51.6138 80.7125C51.4754 80.1821 51.5292 79.79 51.7752 79.521C52.0212 79.2596 52.4056 79.1289 52.936 79.1289H55.9957C57.0181 79.1289 57.6331 79.6593 57.8407 80.7125L60.8926 94.0196C60.9618 94.304 61.0387 94.4885 61.1309 94.5731C61.2155 94.6653 61.3308 94.7038 61.4768 94.7038L61.4845 94.7115Z" fill="#384E67"/>
<path d="M82.1408 86.0548C81.964 86.4776 81.7411 86.8158 81.4797 87.0542C81.2183 87.3002 80.8186 87.4232 80.2881 87.4232H77.8051C76.7519 87.4232 76.2214 86.8927 76.2214 85.8395C76.2214 84.6095 76.5827 83.4487 77.3054 82.3571C78.028 81.2655 79.0812 80.366 80.4726 79.6665C81.8641 78.9592 83.5784 78.6133 85.6232 78.6133C88.5829 78.6133 90.8507 79.4051 92.4344 80.9887C94.018 82.5723 94.8098 85.2476 94.8098 89.0145V99.8923C94.8098 101.584 94.5484 102.76 94.018 103.429C93.4876 104.097 92.6957 104.628 91.6426 105.012C90.6201 105.366 89.59 105.627 88.5522 105.804C87.5144 105.981 86.4842 106.065 85.4618 106.065C82.4022 106.065 79.9883 105.327 78.2279 103.851C76.4674 102.375 75.5911 100.261 75.5911 97.5168C75.5911 95.7564 75.9985 94.2573 76.8057 93.0273C77.6129 91.7973 78.7737 90.8595 80.2881 90.2291C81.8026 89.5987 83.6168 89.2758 85.7309 89.2758C86.2229 89.2758 86.7456 89.2989 87.2914 89.3527C87.8373 89.4065 88.3523 89.4834 88.852 89.591V88.0074C88.852 86.6698 88.5752 85.6704 88.0371 85.0016C87.4913 84.3328 86.6918 83.9945 85.6309 83.9945C84.5701 83.9945 83.8474 84.1867 83.3324 84.5788C82.825 84.9632 82.4252 85.4628 82.1408 86.0548ZM85.4157 93.8192C84.5701 93.8192 83.8782 93.9345 83.3324 94.1651C82.7866 94.3957 82.3714 94.7493 82.0947 95.2183C81.8103 95.6949 81.6719 96.333 81.6719 97.1478C81.6719 98.4163 81.9871 99.3234 82.6251 99.8692C83.2555 100.415 84.2241 100.692 85.531 100.692C85.8154 100.692 86.1998 100.684 86.6918 100.669C87.1838 100.653 87.622 100.569 88.0141 100.43C88.3292 100.323 88.5522 100.169 88.6752 99.9538C88.7982 99.7462 88.8597 99.3695 88.8597 98.8468V94.1497C88.3292 94.0421 87.8065 93.9652 87.2761 93.9114C86.7456 93.8576 86.1306 93.8345 85.4311 93.8345L85.4157 93.8192Z" fill="#384E67"/>
<path d="M101.683 117.75C100.629 117.75 100.099 117.22 100.099 116.167V84.7863C100.099 83.1335 100.368 81.965 100.914 81.2732C101.46 80.589 102.228 80.0508 103.212 79.6665C104.166 79.2821 105.303 79.0053 106.641 78.8516C107.979 78.6902 109.07 78.6133 109.916 78.6133C113.191 78.6133 115.674 79.605 117.357 81.596C119.049 83.5871 119.894 86.4776 119.894 90.2829V94.4572C119.894 98.2625 119.025 101.145 117.28 103.113C115.535 105.089 113.029 106.073 109.754 106.073C109.193 106.073 108.594 106.035 107.955 105.965C107.325 105.896 106.687 105.804 106.057 105.704V116.174C106.057 117.228 105.526 117.758 104.473 117.758H101.675L101.683 117.75ZM109.862 100.684C112.499 100.684 113.821 99.3618 113.821 96.725V88.0151C113.821 86.6775 113.498 85.6781 112.845 85.0093C112.191 84.3405 111.215 84.0022 109.916 84.0022C109.355 84.0022 108.824 84.0176 108.332 84.056C107.84 84.0945 107.364 84.179 106.91 84.3174C106.595 84.3866 106.372 84.5403 106.249 84.7633C106.126 84.9939 106.064 85.3706 106.064 85.901V98.8391C106.064 99.3695 106.126 99.7462 106.249 99.9768C106.372 100.207 106.595 100.354 106.91 100.423C107.364 100.561 107.84 100.646 108.332 100.661C108.824 100.676 109.339 100.684 109.862 100.684Z" fill="#384E67"/>
<path d="M57.7561 101.723C57.364 101.723 57.0719 102.092 57.1719 102.476C57.487 103.706 57.9099 104.529 58.4403 104.928C58.9707 105.336 59.7933 105.536 60.9234 105.536H63.5602C64.6825 105.536 65.5128 105.336 66.0432 104.928C66.5737 104.521 66.9965 103.706 67.3117 102.476C67.4116 102.092 67.1195 101.723 66.7274 101.723H57.7638H57.7561Z" fill="#384E67"/>
<path d="M90.0281 28.0976C91.3042 28.1745 92.2421 26.8984 91.8039 25.6991C87.4297 13.9065 75.9215 5.27344 62.4761 5.27344C57.5792 5.27344 52.3824 6.68025 48.2619 8.67131C47.0857 9.24019 46.9089 10.8392 47.916 11.6617C55.6957 18.0039 70.6326 26.9599 90.0281 28.0976Z" fill="#5FBD95"/>
<path d="M91.4811 32.7104C68.2726 31.9263 51.9059 20.764 43.8494 13.753C43.0191 13.0304 41.7737 13.0304 40.9742 13.7838C37.4457 17.1048 34.7166 21.233 33.0638 25.8762C32.7332 26.8064 33.0869 27.8519 33.9171 28.3977C36.8845 30.335 41.2587 32.8718 46.8782 35.2242C56.626 39.314 72.1394 43.6343 91.4888 41.6433C92.4882 41.5433 93.3031 40.7746 93.4184 39.7829C93.5644 38.5683 93.649 37.3383 93.649 36.0852C93.649 35.5087 93.5952 34.9782 93.526 34.517C93.3722 33.5022 92.5036 32.7488 91.4811 32.7104Z" fill="#FFC20F"/>
<path d="M87.7758 54.8501C89.0211 53.1973 90.8508 50.3837 91.7425 48.4926C92.3114 47.2856 91.3351 45.9326 90.0128 46.0326C87.5451 46.2171 85.1389 46.3016 82.8019 46.3016C67.0887 46.3016 53.4741 42.3733 44.9487 38.7756C40.5745 36.9306 36.9306 34.9933 34.0632 33.279C32.9101 32.5871 31.4418 33.402 31.4187 34.7473C31.4187 34.9395 31.4187 35.1317 31.4187 35.3316C31.4187 40.5129 32.618 46.1479 34.9088 50.4298C35.1164 50.8142 35.4546 51.0986 35.8698 51.2447C43.5342 53.9046 67.45 61.4383 86.9071 55.4651C87.2607 55.3575 87.5682 55.1422 87.7911 54.8501H87.7758Z" fill="#1D9EC6"/>
<path d="M69.5026 61.4073C59.7395 61.4073 48.5158 59.2164 41.5586 57.3867C40.6668 57.1484 40.0288 58.2477 40.6745 58.9089C44.6028 62.9294 53.9278 71.6855 53.9278 71.6855C55.3192 73.1154 57.2257 73.9226 59.2244 73.9226H65.8741C67.8806 73.9226 69.8101 73.1 71.2016 71.6547L81.2568 62.3221C81.8564 61.6994 81.3337 60.677 80.4727 60.7846C77.4208 61.1767 72.5238 61.4073 69.5026 61.4073Z" fill="#FA6261"/>
</svg>
